<svg xmlns="http://www.w3.org/2000/svg" viewBox="0 0 280 48" fill="none">
  <defs>
    <linearGradient id="lg-pin" x1="24" y1="2" x2="24" y2="46" gradientUnits="userSpaceOnUse">
      <stop offset="0%" stop-color="#4ade80"/>
      <stop offset="100%" stop-color="#22c55e"/>
    </linearGradient>
  </defs>
  <!-- Icon: map pin with house -->
  <path d="M24 2C14.6 2 8 8.6 8 16.8c0 4.5 1.7 8.2 4.3 11.4L24 44l11.7-15.8C38.3 25 40 21.3 40 16.8 40 8.6 33.4 2 24 2z" fill="url(#lg-pin)"/>
  <!-- House silhouette -->
  <path d="M24 10l-10 8h2.7v6.5h14.6v-6.5H34L24 10z" fill="#0a0a0a"/>
  <!-- Window -->
  <rect x="21.5" y="21" width="5" height="4.5" rx="0.5" fill="#0a0a0a"/>
  <!-- Chimney -->
  <rect x="30" y="14" width="2.5" height="4" rx="0.5" fill="#0a0a0a"/>
  <!-- Window glow -->
  <rect x="22.3" y="21.8" width="3.4" height="2.9" rx="0.4" fill="url(#lg-pin)" opacity="0.3"/>
  <!-- Wordmark -->
  <text x="52" y="21" font-family="Inter, -apple-system, BlinkMacSystemFont, sans-serif" font-size="16" font-weight="700" fill="#ffffff" letter-spacing="-0.03em">Field</text>
  <text x="52" y="39" font-family="Inter, -apple-system, BlinkMacSystemFont, sans-serif" font-size="16" font-weight="700" fill="#22c55e" letter-spacing="-0.03em">Lgx</text>
</svg>
